<svg width="40" height="37" viewBox="0 0 40 37" fill="none" xmlns="http://www.w3.org/2000/svg">
<path opacity="0.1" fill-rule="evenodd" clip-rule="evenodd" d="M19.9189 36.2486C30.5047 36.2486 39.0862 28.3023 39.0862 18.5C39.0862 8.69778 30.5047 0.751488 19.9189 0.751488C9.33301 0.751488 0.751488 8.69778 0.751488 18.5C0.751488 28.3023 9.33301 36.2486 19.9189 36.2486Z" stroke="#0A142F" stroke-width="1.5"/>
<path d="M21.665 13.9578H23.4266C23.5887 13.9578 23.7202 13.8431 23.7202 13.7016V12.1645C23.7202 12.0231 23.5887 11.9083 23.4266 11.9083H21.665C19.8846 11.9083 18.4354 13.1724 18.4354 14.7264V16.5197H16.3801C16.2181 16.5197 16.0865 16.6344 16.0865 16.7759V18.313C16.0865 18.4544 16.2181 18.5692 16.3801 18.5692H18.4354V23.9491C18.4354 24.0905 18.5669 24.2052 18.729 24.2052H20.4906C20.6527 24.2052 20.7842 24.0905 20.7842 23.9491V18.5692H22.8394C22.9657 18.5692 23.0778 18.4985 23.1183 18.3939L23.7055 16.8568C23.7355 16.7789 23.7202 16.6929 23.665 16.6257C23.6092 16.5591 23.5212 16.5197 23.4266 16.5197H20.7842V14.7264C20.7842 14.3026 21.1794 13.9578 21.665 13.9578Z" fill="#0A142F"/>
</svg>
