<svg width="40" height="37" viewBox="0 0 40 37" fill="none" xmlns="http://www.w3.org/2000/svg">
<path opacity="0.1" fill-rule="evenodd" clip-rule="evenodd" d="M19.9189 36.2486C30.5047 36.2486 39.0862 28.3023 39.0862 18.5C39.0862 8.69778 30.5047 0.751488 19.9189 0.751488C9.33301 0.751488 0.751488 8.69778 0.751488 18.5C0.751488 28.3023 9.33301 36.2486 19.9189 36.2486Z" stroke="#0A142F" stroke-width="1.5"/>
<path d="M26.1853 15.2184C26.0963 15.1253 25.9529 15.1019 25.8353 15.1593C25.7621 15.195 25.6246 15.2418 25.4613 15.2881C25.6673 15.0272 25.8329 14.7352 25.9061 14.4726C25.9377 14.3595 25.8915 14.2402 25.7908 14.1727C25.6901 14.1058 25.5561 14.1058 25.4554 14.1727C25.2968 14.2781 24.5313 14.5947 24.0473 14.6972C22.9535 13.7848 21.6806 13.69 20.3573 14.4258C19.2816 15.0239 19.0475 16.2402 19.0932 16.9815C16.631 16.7558 15.1006 15.5172 14.2391 14.4921C14.1788 14.4202 14.0817 14.3823 13.9904 14.3879C13.8944 14.3946 13.8078 14.4453 13.7586 14.5239C13.3513 15.1789 13.2383 15.9029 13.4332 16.6181C13.5397 17.0083 13.7258 17.3522 13.9418 17.6309C13.8382 17.5824 13.7381 17.5217 13.6439 17.4492C13.5573 17.3812 13.4361 17.3684 13.3337 17.4135C13.2319 17.4598 13.1669 17.5579 13.1669 17.6655C13.1669 18.8935 13.9734 19.7129 14.7266 20.141C14.6049 20.127 14.4779 20.1014 14.3497 20.064C14.2397 20.0323 14.1203 20.064 14.0442 20.1465C13.9681 20.2285 13.95 20.3455 13.9974 20.4453C14.4205 21.3366 15.2223 21.9498 16.2143 22.1722C15.3481 22.6566 14.1888 22.894 13.1271 22.7775C12.9896 22.7591 12.8585 22.8422 12.8152 22.9682C12.7719 23.0941 12.8286 23.2324 12.9498 23.297C14.5604 24.1582 16.0165 24.4659 17.2748 24.4659C19.106 24.4659 20.5194 23.8149 21.3797 23.2703C23.6991 21.8043 25.1447 19.1722 24.9433 16.8171C25.315 16.5557 25.871 16.0729 26.2157 15.554C26.2871 15.4492 26.2742 15.311 26.1853 15.2184Z" fill="#0A142F"/>
</svg>
