<svg width="39" height="43" viewBox="0 0 39 43" fill="none" xmlns="http://www.w3.org/2000/svg">
<path d="M33.4987 42.9992C32.6787 42.9992 31.9987 42.3192 31.9987 41.4992V19.4996C31.9987 18.6797 32.6787 17.9997 33.4987 17.9997C34.3186 17.9997 34.9986 18.6797 34.9986 19.4996V41.4992C34.9986 42.3192 34.3186 42.9992 33.4987 42.9992Z" fill="url(#paint0_linear_0_20)"/>
<path d="M33.4987 12.9998C32.6787 12.9998 31.9987 12.3198 31.9987 11.4998V1.49997C31.9987 0.679987 32.6787 0 33.4987 0C34.3186 0 34.9986 0.679987 34.9986 1.49997V11.4998C34.9986 12.3198 34.3186 12.9998 33.4987 12.9998Z" fill="url(#paint1_linear_0_20)"/>
<path d="M19.4996 42.9992C18.6797 42.9992 17.9997 42.3192 17.9997 41.4992V31.4994C17.9997 30.6794 18.6797 29.9994 19.4996 29.9994C20.3196 29.9994 20.9996 30.6794 20.9996 31.4994V41.4992C20.9996 42.3192 20.3196 42.9992 19.4996 42.9992Z" fill="url(#paint2_linear_0_20)"/>
<path d="M19.4996 24.9995C18.6797 24.9995 17.9997 24.3196 17.9997 23.4996V1.49997C17.9997 0.679987 18.6797 0 19.4996 0C20.3196 0 20.9996 0.679987 20.9996 1.49997V23.4996C20.9996 24.3196 20.3196 24.9995 19.4996 24.9995Z" fill="url(#paint3_linear_0_20)"/>
<path d="M5.50062 42.9992C4.68064 42.9992 4.00065 42.3192 4.00065 41.4992V19.4996C4.00065 18.6797 4.68064 17.9997 5.50062 17.9997C6.3206 17.9997 7.00059 18.6797 7.00059 19.4996V41.4992C7.00059 42.3192 6.3206 42.9992 5.50062 42.9992Z" fill="url(#paint4_linear_0_20)"/>
<path d="M5.50062 12.9998C4.68064 12.9998 4.00065 12.3198 4.00065 11.4998V1.49997C4.00065 0.679987 4.68064 0 5.50062 0C6.3206 0 7.00059 0.679987 7.00059 1.49997V11.4998C7.00059 12.3198 6.3206 12.9998 5.50062 12.9998Z" fill="url(#paint5_linear_0_20)"/>
<path d="M9.49982 20.9996H1.49997C0.679987 20.9996 0 20.3196 0 19.4996C0 18.6797 0.679987 17.9997 1.49997 17.9997H9.49982C10.3198 17.9997 10.9998 18.6797 10.9998 19.4996C10.9998 20.3196 10.3198 20.9996 9.49982 20.9996Z" fill="url(#paint6_linear_0_20)"/>
<path d="M37.5 20.9996H29.5002C28.6802 20.9996 28.0002 20.3196 28.0002 19.4996C28.0002 18.6797 28.6802 17.9997 29.5002 17.9997H37.5C38.32 17.9997 39 18.6797 39 19.4996C39 20.3196 38.32 20.9996 37.5 20.9996Z" fill="url(#paint7_linear_0_20)"/>
<path d="M23.4988 25.0004H15.499C14.679 25.0004 13.999 24.3204 13.999 23.5004C13.999 22.6804 14.679 22.0004 15.499 22.0004H23.4988C24.3188 22.0004 24.9988 22.6804 24.9988 23.5004C24.9988 24.3204 24.3188 25.0004 23.4988 25.0004Z" fill="url(#paint8_linear_0_20)"/>
<defs>
<linearGradient id="paint0_linear_0_20" x1="33.4987" y1="17.9997" x2="33.4987" y2="42.9992" gradientUnits="userSpaceOnUse">
<stop offset="1" stop-color="#704AF2"/>
</linearGradient>
<linearGradient id="paint1_linear_0_20" x1="33.4987" y1="0" x2="33.4987" y2="12.9998" gradientUnits="userSpaceOnUse">
<stop offset="1" stop-color="#704AF2"/>
</linearGradient>
<linearGradient id="paint2_linear_0_20" x1="19.4996" y1="29.9994" x2="19.4996" y2="42.9992" gradientUnits="userSpaceOnUse">
<stop offset="1" stop-color="#704AF2"/>
</linearGradient>
<linearGradient id="paint3_linear_0_20" x1="19.4996" y1="0" x2="19.4996" y2="24.9995" gradientUnits="userSpaceOnUse">
<stop offset="1" stop-color="#704AF2"/>
</linearGradient>
<linearGradient id="paint4_linear_0_20" x1="5.50062" y1="17.9997" x2="5.50062" y2="42.9992" gradientUnits="userSpaceOnUse">
<stop offset="1" stop-color="#704AF2"/>
</linearGradient>
<linearGradient id="paint5_linear_0_20" x1="5.50062" y1="0" x2="5.50062" y2="12.9998" gradientUnits="userSpaceOnUse">
<stop offset="1" stop-color="#704AF2"/>
</linearGradient>
<linearGradient id="paint6_linear_0_20" x1="5.4999" y1="17.9997" x2="5.4999" y2="20.9996" gradientUnits="userSpaceOnUse">
<stop offset="1" stop-color="#704AF2"/>
</linearGradient>
<linearGradient id="paint7_linear_0_20" x1="33.5001" y1="17.9997" x2="33.5001" y2="20.9996" gradientUnits="userSpaceOnUse">
<stop offset="1" stop-color="#704AF2"/>
</linearGradient>
<linearGradient id="paint8_linear_0_20" x1="19.4989" y1="22.0004" x2="19.4989" y2="25.0004" gradientUnits="userSpaceOnUse">
<stop offset="1" stop-color="#704AF2"/>
</linearGradient>
</defs>
</svg>
