<svg width="179" height="46" viewBox="0 0 179 46" fill="none" xmlns="http://www.w3.org/2000/svg">
<path d="M57.2593 35.7572L59.4986 30.5479C61.9166 32.3575 65.1236 33.2967 68.2951 33.2967C70.6441 33.2967 72.1158 32.3928 72.1158 31.0167C72.0804 27.1889 58.0889 30.1871 57.9863 20.5699C57.9509 15.6914 62.2757 11.9255 68.4048 11.9255C72.0468 11.9255 75.6871 12.8312 78.2855 14.8972L76.193 20.2108C73.8157 18.6896 70.8582 17.6053 68.0457 17.6053C66.1318 17.6053 64.8742 18.511 64.8742 19.6642C64.9095 23.423 79.0037 21.3641 79.1487 30.5479C79.1487 35.5361 74.9353 39.0455 68.8753 39.0455C64.439 39.0455 60.3618 37.9983 57.2593 35.7572ZM143.048 28.6677C142.349 29.9141 141.256 30.8932 139.941 31.4512C138.625 32.0093 137.162 32.1148 135.78 31.7511C134.398 31.3874 133.176 30.5751 132.305 29.4417C131.435 28.3083 130.965 26.9181 130.971 25.489C130.968 24.6399 131.133 23.7985 131.457 23.0133C131.78 22.2281 132.255 21.5143 132.855 20.913C133.454 20.3116 134.167 19.8344 134.951 19.5087C135.735 19.1831 136.576 19.0153 137.425 19.0151C139.836 19.0151 141.93 20.3559 143.05 22.3051L149.213 18.87C146.904 14.7522 142.468 11.9255 137.425 11.9255C129.955 11.9255 123.902 18.0068 123.902 25.489C123.902 32.9713 129.955 39.0455 137.425 39.0455C139.832 39.0507 142.196 38.4088 144.27 37.1871C146.343 35.9654 148.051 34.2087 149.213 32.101L143.048 28.6677ZM82.2513 0.682771H89.9705V38.5414H82.2513V0.682771ZM152.246 0.682771V38.5414H159.957V27.1889L169.119 38.5414H179L167.35 25.0539L178.135 12.4721H168.684L159.957 22.9189V0.684539H152.244L152.246 0.682771ZM112.902 28.7437C111.784 30.5886 109.476 31.9559 106.877 31.9559C106.029 31.9555 105.189 31.7878 104.405 31.4625C103.621 31.1371 102.91 30.6605 102.31 30.0599C101.711 29.4593 101.236 28.7465 100.912 27.9622C100.589 27.1779 100.423 26.3375 100.424 25.489C100.423 24.6402 100.588 23.7994 100.912 23.0145C101.235 22.2297 101.71 21.5163 102.309 20.9151C102.909 20.3139 103.62 19.8367 104.404 19.5107C105.188 19.1846 106.028 19.0162 106.877 19.0151C109.476 19.0151 111.784 20.4585 112.902 22.3387V28.7437ZM112.902 12.4704V15.5481C111.639 13.4114 108.501 11.9255 105.22 11.9255C98.4415 11.9255 93.1067 17.9308 93.1067 25.4484C93.1067 32.973 98.4415 39.0455 105.22 39.0455C108.501 39.0455 111.639 37.5596 112.902 35.4317V38.5077H120.621V12.4704H112.902ZM9.55708 28.7013C9.55708 31.3422 7.42916 33.4771 4.79535 33.4771C4.16906 33.4767 3.549 33.3527 2.97066 33.1123C2.39233 32.872 1.86707 32.5199 1.42495 32.0763C0.982835 31.6327 0.632533 31.1063 0.394095 30.5272C0.155657 29.948 0.033764 29.3276 0.0353921 28.7013C0.034229 28.0755 0.156504 27.4557 0.395215 26.8773C0.633926 26.2988 0.984385 25.7732 1.42653 25.3304C1.86867 24.8876 2.39381 24.5363 2.97188 24.2968C3.54995 24.0572 4.16961 23.934 4.79535 23.9342H9.55708V28.7013ZM11.9326 28.7013C11.9315 28.0754 12.0538 27.4554 12.2926 26.8769C12.5315 26.2983 12.8821 25.7726 13.3244 25.3297C13.7667 24.8869 14.2921 24.5357 14.8704 24.2963C15.4486 24.0568 16.0685 23.9338 16.6944 23.9342C17.3203 23.934 17.9401 24.0572 18.5182 24.2969C19.0964 24.5366 19.6217 24.888 20.0638 25.331C20.506 25.774 20.8564 26.2999 21.095 26.8785C21.3336 27.4571 21.4557 28.0771 21.4543 28.703V40.6357C21.4557 41.2618 21.3337 41.8821 21.0951 42.461C20.8566 43.0399 20.5062 43.5662 20.0641 44.0096C19.622 44.453 19.0969 44.8049 18.5187 45.0451C17.9404 45.2854 17.3205 45.4093 16.6944 45.4098C16.0679 45.4095 15.4477 45.2857 14.8691 45.0455C14.2906 44.8052 13.7651 44.4532 13.3228 44.0096C12.8805 43.566 12.5301 43.0395 12.2915 42.4602C12.053 41.881 11.931 41.2603 11.9326 40.6339V28.7013ZM16.6944 9.54291C16.0679 9.54268 15.4477 9.41889 14.8691 9.17863C14.2906 8.93836 13.7651 8.58634 13.3228 8.14272C12.8805 7.69909 12.5301 7.17259 12.2915 6.59334C12.053 6.01409 11.931 5.39348 11.9326 4.76704C11.9315 4.14114 12.0538 3.52116 12.2926 2.94262C12.5315 2.36408 12.8821 1.83834 13.3244 1.39551C13.7667 0.952692 14.2921 0.60149 14.8704 0.362024C15.4486 0.122558 16.0685 -0.000465111 16.6944 1.32137e-06C17.3201 -0.00023238 17.9398 0.12296 18.5178 0.36253C19.0959 0.6021 19.6211 0.953342 20.0632 1.39614C20.5053 1.83894 20.8558 2.3646 21.0945 2.94303C21.3332 3.52146 21.4555 4.14129 21.4543 4.76704V9.54291H16.6944ZM16.6944 11.968C17.3201 11.9678 17.9398 12.091 18.5178 12.3305C19.0959 12.5701 19.6211 12.9213 20.0632 13.3641C20.5053 13.8069 20.8558 14.3326 21.0945 14.911C21.3332 15.4895 21.4555 16.1093 21.4543 16.735C21.4543 19.3742 19.3264 21.5109 16.6944 21.5109H4.76174C4.1353 21.5107 3.51505 21.3869 2.93651 21.1466C2.35797 20.9064 1.83251 20.5543 1.3902 20.1107C0.947895 19.6671 0.597434 19.1406 0.358886 18.5613C0.120337 17.9821 -0.00161229 17.3615 1.60948e-05 16.735C-0.00114746 16.1091 0.121184 15.4892 0.360006 14.9106C0.598828 14.3321 0.949446 13.8063 1.39178 13.3635C1.83411 12.9207 2.35946 12.5695 2.93773 12.33C3.51601 12.0906 4.13585 11.9675 4.76174 11.968H16.6944ZM35.7714 16.735C35.7702 16.1093 35.8925 15.4895 36.1312 14.911C36.3699 14.3326 36.7204 13.8069 37.1625 13.3641C37.6046 12.9213 38.1298 12.5701 38.7078 12.3305C39.2859 12.091 39.9056 11.9678 40.5313 11.968C41.1572 11.9675 41.7771 12.0906 42.3553 12.33C42.9336 12.5695 43.459 12.9207 43.9013 13.3635C44.3436 13.8063 44.6942 14.3321 44.9331 14.9106C45.1719 15.4892 45.2942 16.1091 45.293 16.735C45.293 19.3742 43.1651 21.5109 40.5313 21.5109H35.7714V16.735ZM33.394 16.735C33.394 19.3742 31.2661 21.5109 28.6341 21.5109C28.0076 21.5107 27.3874 21.3869 26.8088 21.1466C26.2303 20.9064 25.7048 20.5543 25.2625 20.1107C24.8202 19.6671 24.4698 19.1406 24.2312 18.5613C23.9927 17.9821 23.8707 17.3615 23.8723 16.735V4.76704C23.8712 4.14114 23.9935 3.52116 24.2323 2.94262C24.4712 2.36408 24.8218 1.83834 25.2641 1.39551C25.7064 0.952692 26.2318 0.60149 26.8101 0.362024C27.3883 0.122558 28.0082 -0.000465111 28.6341 1.32137e-06C29.2598 -0.00023238 29.8795 0.12296 30.4575 0.36253C31.0356 0.6021 31.5608 0.953342 32.0029 1.39614C32.445 1.83894 32.7955 2.3646 33.0342 2.94303C33.2729 3.52146 33.3952 4.14129 33.394 4.76704V16.735ZM28.6341 35.8669C29.26 35.8666 29.8798 35.9899 30.458 36.2296C31.0361 36.4692 31.5614 36.8206 32.0035 37.2636C32.4457 37.7066 32.7961 38.2325 33.0347 38.8111C33.2733 39.3897 33.3954 40.0098 33.394 40.6357C33.3954 41.2618 33.2734 41.8821 33.0348 42.461C32.7963 43.0399 32.4459 43.5662 32.0038 44.0096C31.5617 44.453 31.0366 44.8049 30.4584 45.0451C29.8801 45.2854 29.2602 45.4093 28.6341 45.4098C28.0076 45.4095 27.3874 45.2857 26.8088 45.0455C26.2303 44.8052 25.7048 44.4532 25.2625 44.0096C24.8202 43.566 24.4698 43.0395 24.2312 42.4602C23.9927 41.881 23.8707 41.2603 23.8723 40.6339V35.8669H28.6341ZM28.6341 33.4771C28.0076 33.4769 27.3874 33.3531 26.8088 33.1129C26.2303 32.8726 25.7048 32.5206 25.2625 32.0769C24.8202 31.6333 24.4698 31.1068 24.2312 30.5276C23.9927 29.9483 23.8707 29.3277 23.8723 28.7013C23.8712 28.0754 23.9935 27.4554 24.2323 26.8769C24.4712 26.2983 24.8218 25.7726 25.2641 25.3297C25.7064 24.8869 26.2318 24.5357 26.8101 24.2963C27.3883 24.0568 28.0082 23.9338 28.6341 23.9342H40.5667C41.1926 23.934 41.8124 24.0572 42.3906 24.2969C42.9688 24.5366 43.494 24.888 43.9361 25.331C44.3783 25.774 44.7287 26.2999 44.9673 26.8785C45.2059 27.4571 45.3281 28.0771 45.3267 28.703C45.3281 29.3292 45.206 29.9495 44.9674 30.5284C44.7289 31.1073 44.3786 31.6335 43.9365 32.0769C43.4944 32.5204 42.9692 32.8723 42.391 33.1125C41.8128 33.3528 41.1928 33.4767 40.5667 33.4771H28.6341Z" fill="#A9A9B9"/>
</svg>
