<svg width="45" height="45" viewBox="0 0 45 45" fill="none" xmlns="http://www.w3.org/2000/svg">
<path d="M43.057 5.60861C39.8343 13.6445 31.7565 24.5683 24.9972 29.9883L20.8746 33.2947C20.3515 33.6714 19.8283 34.0062 19.2423 34.2364C19.2423 33.8598 19.2214 33.4412 19.1586 33.0436C18.9284 31.2858 18.1332 29.6535 16.7311 28.2514C15.3081 26.8284 13.5712 25.9913 11.7924 25.7611C11.3739 25.7402 10.9553 25.6983 10.5368 25.7402C10.767 25.0914 11.1227 24.4846 11.5622 23.9823L14.8268 19.8597C20.2259 13.1004 31.1915 4.98081 39.2065 1.77901C40.4412 1.31862 41.634 1.65345 42.3873 2.42774C43.1826 3.20203 43.5592 4.39486 43.057 5.60861Z" stroke="#E27244" stroke-width="3.125" stroke-linecap="round" stroke-linejoin="round"/>
<path d="M19.2423 34.2365C19.2423 36.5385 18.3634 38.7358 16.7102 40.4099C15.4336 41.6865 13.6967 42.5654 11.625 42.8374L6.47698 43.4025C3.67279 43.7164 1.26621 41.3307 1.60104 38.4847L2.16606 33.3367C2.66831 28.7537 6.49791 25.824 10.5577 25.7403C10.9762 25.7193 11.4157 25.7403 11.8133 25.7612C13.5921 25.9914 15.329 26.8075 16.752 28.2515C18.1541 29.6536 18.9493 31.2859 19.1795 33.0437C19.2005 33.4413 19.2423 33.8389 19.2423 34.2365Z" stroke="#E27244" stroke-width="3.125" stroke-linecap="round" stroke-linejoin="round"/>
<path d="M27.2154 27.6445C27.2154 22.1826 22.7789 17.7461 17.317 17.7461" stroke="#E27244" stroke-width="3.125" stroke-linecap="round" stroke-linejoin="round"/>
</svg>
