<svg width="45" height="45" viewBox="0 0 45 45" fill="none" xmlns="http://www.w3.org/2000/svg">
<path d="M32.9651 23.0233V32.4419C32.9651 40.2907 29.8255 43.4302 21.9767 43.4302H12.5581C4.70929 43.4302 1.56976 40.2907 1.56976 32.4419V23.0233C1.56976 15.1745 4.70929 12.0349 12.5581 12.0349H21.9767C29.8255 12.0349 32.9651 15.1745 32.9651 23.0233Z" stroke="#DF5E63" stroke-width="3.125" stroke-linecap="round" stroke-linejoin="round"/>
<path d="M43.4302 13.0814C43.4302 19.0883 38.8464 24.0069 32.9651 24.5302V23.0232C32.9651 15.1744 29.8255 12.0349 21.9767 12.0349H20.4697C20.993 6.15348 25.9116 1.56976 31.9185 1.56976C37.7581 1.56976 42.572 5.90231 43.3046 11.5535C43.3883 12.0349 43.4302 12.5581 43.4302 13.0814Z" stroke="#DF5E63" stroke-width="3.125" stroke-linecap="round" stroke-linejoin="round"/>
</svg>
