<svg width="40" height="37" viewBox="0 0 40 37" fill="none" xmlns="http://www.w3.org/2000/svg">
<path opacity="0.1" fill-rule="evenodd" clip-rule="evenodd" d="M19.9189 36.2486C30.5047 36.2486 39.0862 28.3023 39.0862 18.5C39.0862 8.69778 30.5047 0.751488 19.9189 0.751488C9.33301 0.751488 0.751488 8.69778 0.751488 18.5C0.751488 28.3023 9.33301 36.2486 19.9189 36.2486Z" stroke="#0A142F" stroke-width="1.5"/>
<path d="M15.5197 14.9176C16.4172 14.9176 17.1446 14.2439 17.1446 13.413C17.1446 12.582 16.4172 11.9083 15.5197 11.9083C14.6223 11.9083 13.8948 12.582 13.8948 13.413C13.8948 14.2439 14.6223 14.9176 15.5197 14.9176Z" fill="#0A142F"/>
<path d="M16.8738 15.9221H14.1657C14.0162 15.9221 13.8948 16.0345 13.8948 16.1729V23.696C13.8948 23.8344 14.0162 23.9468 14.1657 23.9468H16.8738C17.0233 23.9468 17.1446 23.8344 17.1446 23.696V16.1729C17.1446 16.0345 17.0233 15.9221 16.8738 15.9221Z" fill="#0A142F"/>
<path d="M24.9442 15.5048C23.7868 15.1376 22.339 15.4601 21.4707 16.0384C21.4409 15.9306 21.3348 15.8503 21.2086 15.8503H18.5004C18.3509 15.8503 18.2296 15.9627 18.2296 16.1011V23.6242C18.2296 23.7626 18.3509 23.875 18.5004 23.875H21.2086C21.3581 23.875 21.4794 23.7626 21.4794 23.6242V18.2176C21.917 17.8685 22.4809 17.7572 22.9423 17.9387C23.3897 18.1138 23.6459 18.5411 23.6459 19.1103V23.6242C23.6459 23.7626 23.7673 23.875 23.9167 23.875H26.6249C26.7744 23.875 26.8957 23.7626 26.8957 23.6242V18.6053C26.8649 16.5444 25.8179 15.7816 24.9442 15.5048Z" fill="#0A142F"/>
</svg>
