<svg width="246" height="53" viewBox="0 0 246 53" fill="none" xmlns="http://www.w3.org/2000/svg">
<g clip-path="url(#clip0_1_319)">
<path d="M246 23.7579V19.4312H240.627V12.7056L240.446 12.7609L235.4 14.3051L235.301 14.3354V19.4312H227.336V16.5926C227.336 15.2709 227.632 14.259 228.215 13.5849C228.793 12.918 229.621 12.5793 230.676 12.5793C231.435 12.5793 232.22 12.758 233.011 13.1102L233.209 13.1986V8.64279L233.115 8.60916C232.378 8.34346 231.375 8.21037 230.132 8.21037C228.564 8.21037 227.141 8.55102 225.899 9.22704C224.675 9.88521 223.667 10.8821 222.994 12.0983C222.312 13.3254 221.966 14.7423 221.966 16.3106V19.4317H218.225V23.7583H221.966V41.984H227.336V23.7579H235.301V35.34C235.301 40.1101 237.551 42.5278 241.988 42.5278C242.755 42.5234 243.519 42.4383 244.269 42.2742C245.066 42.1026 245.609 41.9311 245.929 41.748L246 41.7062V37.3397L245.782 37.4844C245.49 37.679 245.127 37.8375 244.701 37.9552C244.274 38.0753 243.917 38.1359 243.641 38.1359C242.601 38.1359 241.832 37.8558 241.355 37.3027C240.872 36.7454 240.627 35.7696 240.627 34.405V23.7579H246ZM206.232 38.1364C204.283 38.1364 202.746 37.4897 201.663 36.2169C200.574 34.9369 200.021 33.1131 200.021 30.7948C200.021 28.4035 200.574 26.5321 201.664 25.2295C202.747 23.9361 204.27 23.2793 206.189 23.2793C208.05 23.2793 209.533 23.9063 210.594 25.1445C211.662 26.3884 212.203 28.245 212.203 30.6641C212.203 33.1131 211.694 34.9946 210.69 36.2529C209.693 37.5021 208.193 38.1364 206.232 38.1364ZM206.472 18.8878C202.753 18.8878 199.799 19.9775 197.693 22.1267C195.588 24.2763 194.521 27.2504 194.521 30.9683C194.521 34.4992 195.563 37.3393 197.617 39.4086C199.672 41.4785 202.468 42.5269 205.927 42.5269C209.532 42.5269 212.427 41.4223 214.532 39.2434C216.637 37.0668 217.703 34.1206 217.703 30.4892C217.703 26.9035 216.703 24.0423 214.728 21.9869C212.753 19.9304 209.974 18.8878 206.472 18.8878ZM185.862 18.8878C183.333 18.8878 181.24 19.535 179.642 20.8107C178.034 22.094 177.218 23.7776 177.218 25.8143C177.218 26.8727 177.394 27.813 177.741 28.6106C178.089 29.4111 178.629 30.1154 179.346 30.7069C180.057 31.2935 181.155 31.908 182.61 32.5327C183.833 33.0362 184.745 33.4624 185.325 33.7977C185.891 34.1269 186.293 34.4574 186.52 34.7793C186.741 35.094 186.853 35.5255 186.853 36.0574C186.853 37.5728 185.718 38.3098 183.384 38.3098C182.517 38.3098 181.529 38.1292 180.447 37.7726C179.373 37.4214 178.359 36.9072 177.441 36.2481L177.218 36.0886V41.2585L177.3 41.2969C178.06 41.6476 179.018 41.9431 180.147 42.1761C181.274 42.4087 182.298 42.5274 183.188 42.5274C185.932 42.5274 188.143 41.8773 189.756 40.594C191.38 39.3015 192.202 37.579 192.202 35.4712C192.202 33.9515 191.759 32.6475 190.886 31.5962C190.019 30.5536 188.515 29.596 186.416 28.7499C184.744 28.0787 183.672 27.5219 183.231 27.0942C182.805 26.681 182.588 26.0968 182.588 25.3573C182.588 24.701 182.856 24.1759 183.404 23.7502C183.956 23.3226 184.725 23.1049 185.689 23.1049C186.584 23.1049 187.499 23.2462 188.41 23.5229C189.32 23.8001 190.118 24.1715 190.786 24.6251L191.005 24.775V19.8704L190.921 19.8344C190.306 19.5701 189.494 19.3443 188.509 19.1617C187.527 18.9801 186.636 18.8878 185.862 18.8878ZM163.218 38.1364C161.269 38.1364 159.732 37.4897 158.649 36.2169C157.559 34.9369 157.008 33.1131 157.008 30.7948C157.008 28.4035 157.56 26.5321 158.651 25.2295C159.733 23.9361 161.255 23.2793 163.175 23.2793C165.036 23.2793 166.519 23.9063 167.581 25.1445C168.648 26.3884 169.189 28.245 169.189 30.6641C169.189 33.1131 168.68 34.9946 167.676 36.2529C166.678 37.5021 165.179 38.1364 163.218 38.1364ZM163.458 18.8878C159.738 18.8878 156.784 19.9775 154.679 22.1267C152.575 24.2763 151.507 27.2504 151.507 30.9683C151.507 34.5007 152.55 37.3393 154.604 39.4086C156.658 41.4785 159.454 42.5269 162.914 42.5269C166.517 42.5269 169.413 41.4223 171.519 39.2434C173.623 37.0668 174.69 34.1206 174.69 30.4892C174.69 26.9035 173.689 24.0423 171.714 21.9869C169.738 19.9304 166.96 18.8878 163.458 18.8878ZM143.355 23.337V19.4312H138.05V41.983H143.354V30.4465C143.354 28.4847 143.799 26.8732 144.677 25.6562C145.543 24.4536 146.698 23.8439 148.108 23.8439C148.586 23.8439 149.122 23.9227 149.703 24.0788C150.278 24.2335 150.694 24.4017 150.94 24.5785L151.163 24.7404V19.3928L151.076 19.3558C150.583 19.1458 149.884 19.0401 149 19.0401C147.667 19.0401 146.474 19.4682 145.452 20.3115C144.555 21.0528 143.906 22.0695 143.411 23.337H143.355ZM128.55 18.8878C126.117 18.8878 123.945 19.4101 122.099 20.4388C120.249 21.4694 118.818 22.942 117.844 24.8134C116.875 26.681 116.383 28.8624 116.383 31.295C116.383 33.4254 116.86 35.3809 117.803 37.1038C118.747 38.8302 120.082 40.1808 121.773 41.1177C123.461 42.0531 125.412 42.5274 127.572 42.5274C130.093 42.5274 132.245 42.0234 133.972 41.0297L134.041 40.9894V36.1294L133.818 36.2923C133.024 36.8678 132.15 37.323 131.223 37.6434C130.285 37.9706 129.431 38.1359 128.681 38.1359C126.599 38.1359 124.929 37.4848 123.716 36.201C122.5 34.9148 121.884 33.1097 121.884 30.8376C121.884 28.5515 122.526 26.6998 123.793 25.3328C125.056 23.9707 126.73 23.2798 128.769 23.2798C130.512 23.2798 132.211 23.8703 133.818 25.0364L134.041 25.1978V20.077L133.969 20.0366C133.364 19.6979 132.539 19.4183 131.515 19.2064C130.496 18.995 129.498 18.8878 128.55 18.8878ZM112.73 19.4312H107.424V41.983H112.73V19.4312ZM110.131 9.82427C109.258 9.82427 108.497 10.1217 107.871 10.7103C107.243 11.3012 106.924 12.045 106.924 12.9223C106.924 13.7862 107.239 14.516 107.861 15.0912C108.479 15.6644 109.243 15.955 110.131 15.955C111.019 15.955 111.786 15.6644 112.412 15.0921C113.041 14.516 113.361 13.7862 113.361 12.9223C113.361 12.0757 113.05 11.3392 112.438 10.7343C111.826 10.1303 111.05 9.82427 110.131 9.82427ZM96.8954 17.7679V41.9825H102.309V10.5147H94.8164L85.2921 33.8881L76.0498 10.5147H68.2518V41.983H73.3395V17.7655H73.5143L83.2741 41.983H87.1131L96.7205 17.7674L96.8954 17.7679Z" fill="#A9A9B9"/>
<path d="M24.9552 24.9551H0.000183136V6.10455e-05H24.9552V24.9551Z" fill="#A9A9B9"/>
<path d="M52.5105 24.9551H27.5554V0H52.5105V24.9551Z" fill="#A9A9B9"/>
<path d="M24.9546 52.5193H0V27.5642H24.9546V52.5193Z" fill="#A9A9B9"/>
<path d="M52.5105 52.5193H27.5554V27.5642H52.5105V52.5193Z" fill="#A9A9B9"/>
</g>
<defs>
<clipPath id="clip0_1_319">
<rect width="245.958" height="52.8426" fill="white"/>
</clipPath>
</defs>
</svg>
