<svg width="41" height="50" viewBox="0 0 41 50" fill="none" xmlns="http://www.w3.org/2000/svg">
<path d="M38.9535 13.3721V36.6279C38.9535 45.9302 36.6279 48.2558 27.3256 48.2558H13.3721C4.06977 48.2558 1.74419 45.9302 1.74419 36.6279V13.3721C1.74419 4.06977 4.06977 1.74419 13.3721 1.74419H27.3256C36.6279 1.74419 38.9535 4.06977 38.9535 13.3721Z" stroke="#5E5DEF" stroke-width="3.46875" stroke-linecap="round" stroke-linejoin="round"/>
<path d="M25 9.88372H15.6977" stroke="#5E5DEF" stroke-width="3.46875" stroke-linecap="round" stroke-linejoin="round"/>
<path d="M20.3488 41.5116C22.3396 41.5116 23.9535 39.8978 23.9535 37.907C23.9535 35.9162 22.3396 34.3023 20.3488 34.3023C18.358 34.3023 16.7442 35.9162 16.7442 37.907C16.7442 39.8978 18.358 41.5116 20.3488 41.5116Z" stroke="#5E5DEF" stroke-width="3.46875" stroke-linecap="round" stroke-linejoin="round"/>
</svg>
