<svg width="171" height="57" viewBox="0 0 171 57" fill="none" xmlns="http://www.w3.org/2000/svg">
<g clip-path="url(#clip0_1_325)">
<path d="M165.675 34.2899L170.419 37.4524C168.879 39.7202 165.197 43.6111 158.83 43.6111C150.924 43.6111 145.036 37.4942 145.036 29.7127C145.036 21.4322 150.986 15.8146 158.164 15.8146C165.384 15.8146 168.92 21.5568 170.065 24.6568L170.689 26.2382L152.089 33.9362C153.504 36.7243 155.709 38.1391 158.83 38.1391C161.951 38.1391 164.114 36.5994 165.675 34.2899ZM151.09 29.2761L163.511 24.1161C162.825 22.3894 160.786 21.162 158.351 21.162C155.251 21.162 150.945 23.9083 151.09 29.2761Z" fill="#A9A9B9"/>
<path d="M136.067 1.64687H142.059V42.3429H136.067V1.64654V1.64687Z" fill="#A9A9B9"/>
<path d="M126.621 16.8965H132.405V41.6137C132.405 51.8707 126.35 56.0943 119.193 56.0943C112.452 56.0943 108.395 51.5588 106.876 47.8762L112.181 45.6706C113.138 47.9384 115.448 50.6226 119.193 50.6226C123.791 50.6226 126.621 47.772 126.621 42.446V40.4488H126.413C125.039 42.113 122.418 43.6109 119.089 43.6109C112.14 43.6109 105.773 37.5565 105.773 29.7546C105.773 21.9106 112.14 15.794 119.089 15.794C122.397 15.794 125.039 17.2713 126.413 18.8941H126.621V16.8969V16.8965ZM127.036 29.7546C127.036 24.8444 123.77 21.2657 119.609 21.2657C115.406 21.2657 111.869 24.8444 111.869 29.7546C111.869 34.602 115.406 38.1182 119.609 38.1182C123.77 38.1393 127.037 34.602 127.037 29.7546H127.036Z" fill="#A9A9B9"/>
<path d="M72.881 29.6513C72.881 37.6616 66.6395 43.5494 58.9829 43.5494C51.3266 43.5494 45.0848 37.6409 45.0848 29.6513C45.0848 21.5996 51.3266 15.7325 58.9829 15.7325C66.6395 15.7325 72.881 21.5996 72.881 29.6513ZM66.8058 29.6513C66.8058 24.6582 63.1854 21.2249 58.9829 21.2249C54.7804 21.2249 51.16 24.6582 51.16 29.6513C51.16 34.6029 54.7804 38.0777 58.9829 38.0777C63.1858 38.0777 66.8058 34.6029 66.8058 29.6513Z" fill="#A9A9B9"/>
<path d="M103.236 29.7127C103.236 37.7229 96.9941 43.6108 89.3378 43.6108C81.6812 43.6108 75.4397 37.7226 75.4397 29.7127C75.4397 21.661 81.6812 15.8146 89.3378 15.8146C96.9941 15.8146 103.236 21.6403 103.236 29.7127ZM97.1397 29.7127C97.1397 24.7196 93.5196 21.2862 89.3168 21.2862C85.1142 21.2862 81.4938 24.7196 81.4938 29.7127C81.4938 34.6643 85.1142 38.1391 89.3168 38.1391C93.5403 38.1391 97.1397 34.6436 97.1397 29.7127Z" fill="#A9A9B9"/>
<path d="M22.2397 37.5146C13.5221 37.5146 6.69811 30.4823 6.69811 21.7646C6.69811 13.0473 13.5221 6.01491 22.2397 6.01491C26.9419 6.01491 30.3746 7.86652 32.9129 10.2385L37.095 6.05665C33.5581 2.66538 28.8353 0.085014 22.2397 0.085014C10.2975 0.085348 0.248202 9.82266 0.248202 21.7646C0.248202 33.7072 10.2975 43.4442 22.2397 43.4442C28.6896 43.4442 33.5581 41.3221 37.3656 37.369C41.2768 33.4574 42.4835 27.9647 42.4835 23.5123C42.4835 22.1183 42.3172 20.6828 42.1298 19.6218H22.2397V25.4057H36.4084C35.9922 29.0261 34.848 31.5019 33.1627 33.1869C31.1237 35.2469 27.8991 37.5146 22.2397 37.5146Z" fill="#A9A9B9"/>
</g>
<defs>
<clipPath id="clip0_1_325">
<rect width="170.893" height="56.0743" fill="white" transform="scale(1.00063)"/>
</clipPath>
</defs>
</svg>
