<svg width="101" height="101" viewBox="0 0 101 101" fill="none" xmlns="http://www.w3.org/2000/svg">
<g clip-path="url(#clip0_1_334)">
<path d="M22.2433 28.254C16.3435 28.254 10.6853 30.5976 6.51352 34.7694C2.34173 38.9412 -0.00196051 44.5994 -0.00196051 50.4992C-0.00196051 56.399 2.34173 62.0572 6.51352 66.229C10.6853 70.4008 16.3435 72.7445 22.2433 72.7445C28.0682 72.6311 33.6162 70.2377 37.6956 66.0782C41.7749 61.9187 44.06 56.3252 44.06 50.4992C44.06 44.6732 41.7749 39.0797 37.6956 34.9202C33.6162 30.7607 28.0682 28.3673 22.2433 28.254ZM22.2433 31.8731C22.4537 31.8731 22.8998 31.8731 23.127 31.8815V33.6196C22.8325 33.6133 22.5379 33.609 22.2433 33.607C20.0259 33.6014 17.8293 34.0356 15.7808 34.8843C13.7322 35.7331 11.8722 36.9796 10.3085 38.5517C8.73555 40.115 7.48856 41.9748 6.63975 44.0235C5.79094 46.0722 5.3572 48.269 5.36367 50.4866C5.36367 54.9979 7.11854 59.2399 10.3085 62.4214C11.8722 63.9936 13.7322 65.2401 15.7808 66.0888C17.8293 66.9376 20.0259 67.3717 22.2433 67.3662C26.5222 67.3584 30.6391 65.7298 33.765 62.8086C36.8908 59.8873 38.7933 55.8904 39.0893 51.6228V51.3703H27.5668V49.6449H40.1119L40.8568 49.6407V50.4866C40.8645 52.9318 40.3872 55.3543 39.4525 57.6139C38.5177 59.8734 37.1441 61.9251 35.4112 63.6502C33.6849 65.3846 31.632 66.7596 29.3711 67.6958C27.1102 68.6319 24.6861 69.1106 22.2391 69.1042C17.2733 69.1042 12.602 67.1684 9.067 63.6502C7.33479 61.9248 5.96196 59.8729 5.02796 57.6134C4.09395 55.3538 3.61732 52.9315 3.62562 50.4866C3.63119 45.5502 5.59434 40.8175 9.08451 37.3266C12.5747 33.8356 17.3069 31.8714 22.2433 31.8647V31.8731ZM89.8418 35.568C80.5414 35.568 75.6513 40.6475 75.6513 50.3309C75.6513 59.968 80.07 65.1863 89.7913 65.1863C94.2521 65.1863 98.6246 64.05 100.998 62.3878V48.4329H89.4672V53.7943H94.8749V58.8233C93.8776 59.202 91.9291 59.585 90.0774 59.585C84.1016 59.585 82.1069 56.5466 82.1069 50.3772C82.1069 44.4939 84.0006 41.0262 89.9849 41.0262C93.3094 41.0262 95.2032 42.0699 96.7729 44.0647L100.905 40.2687C98.3889 36.6622 93.9744 35.568 89.8376 35.568H89.8418ZM54.4371 35.9973V64.757H74.8475V59.16H61.0862V35.9931L54.4371 35.9973ZM15.1396 40.7232C15.8484 40.7232 16.5281 41.0048 17.0292 41.5059C17.5304 42.0071 17.8119 42.6868 17.8119 43.3955C17.8119 44.1043 17.5304 44.784 17.0292 45.2851C16.5281 45.7863 15.8484 46.0678 15.1396 46.0678C14.4309 46.0678 13.7512 45.7863 13.25 45.2851C12.7489 44.784 12.4673 44.1043 12.4673 43.3955C12.4673 42.6868 12.7489 42.0071 13.25 41.5059C13.7512 41.0048 14.4309 40.7232 15.1396 40.7232ZM21.3595 40.7317H23.127V58.4908H27.5542V60.2331H21.3595V40.7317Z" fill="#A9A9B9"/>
</g>
<defs>
<clipPath id="clip0_1_334">
<rect width="100.619" height="100.619" fill="white" transform="scale(1.00378)"/>
</clipPath>
</defs>
</svg>
