<svg width="45" height="45" viewBox="0 0 45 45" fill="none" xmlns="http://www.w3.org/2000/svg">
<path d="M39.2441 26.6861C41.556 26.6861 43.4302 24.8119 43.4302 22.5C43.4302 20.1882 41.556 18.314 39.2441 18.314C36.9322 18.314 35.0581 20.1882 35.0581 22.5C35.0581 24.8119 36.9322 26.6861 39.2441 26.6861Z" stroke="#F3BC4C" stroke-width="3.125" stroke-linecap="round" stroke-linejoin="round"/>
<path d="M39.2441 9.94184C41.556 9.94184 43.4302 8.06769 43.4302 5.7558C43.4302 3.44392 41.556 1.56976 39.2441 1.56976C36.9322 1.56976 35.0581 3.44392 35.0581 5.7558C35.0581 8.06769 36.9322 9.94184 39.2441 9.94184Z" stroke="#F3BC4C" stroke-width="3.125" stroke-linecap="round" stroke-linejoin="round"/>
<path d="M39.2441 43.4302C41.556 43.4302 43.4302 41.556 43.4302 39.2442C43.4302 36.9323 41.556 35.0581 39.2441 35.0581C36.9322 35.0581 35.0581 36.9323 35.0581 39.2442C35.0581 41.556 36.9322 43.4302 39.2441 43.4302Z" stroke="#F3BC4C" stroke-width="3.125" stroke-linecap="round" stroke-linejoin="round"/>
<path d="M5.7558 26.6861C8.06769 26.6861 9.94184 24.8119 9.94184 22.5C9.94184 20.1882 8.06769 18.314 5.7558 18.314C3.44392 18.314 1.56976 20.1882 1.56976 22.5C1.56976 24.8119 3.44392 26.6861 5.7558 26.6861Z" stroke="#F3BC4C" stroke-width="3.125" stroke-linecap="round" stroke-linejoin="round"/>
<path d="M9.94185 22.5H35.0581" stroke="#F3BC4C" stroke-width="3.125" stroke-linecap="round" stroke-linejoin="round"/>
<path d="M35.0581 5.75589H26.686C22.5 5.75589 20.4069 7.8489 20.4069 12.0349V32.9651C20.4069 37.1512 22.5 39.2442 26.686 39.2442H35.0581" stroke="#F3BC4C" stroke-width="3.125" stroke-linecap="round" stroke-linejoin="round"/>
</svg>
